<svg width="410" height="61" viewBox="0 0 410 61" fill="none" xmlns="http://www.w3.org/2000/svg">
<rect width="202" height="61" rx="10" fill="#2B2B2B"/>
<path d="M78.7838 44.5019H77.0109L76.8089 42.2601C76.4199 42.9625 75.7841 43.5678 74.9014 44.0759C74.0187 44.5841 72.9565 44.8381 71.7147 44.8381C70.3533 44.8381 69.0965 44.5318 67.9446 43.919C66.7926 43.2913 65.8425 42.3348 65.0945 41.0495C64.3614 39.7643 63.9949 38.2623 63.9949 36.5436C63.9949 34.8249 64.3839 33.3229 65.1618 32.0376C65.9398 30.7524 66.9123 29.8034 68.0792 29.1906C69.2611 28.5779 70.5253 28.2715 71.8718 28.2715C73.5774 28.2715 75.0585 28.7124 76.3152 29.5941C77.5869 30.4609 78.4546 31.6192 78.9184 33.0689L76.9211 33.9207C76.5621 32.77 75.9337 31.8807 75.036 31.253C74.1533 30.6104 73.0986 30.2891 71.8718 30.2891C70.3308 30.2891 69.0068 30.8346 67.8997 31.9256C66.7926 33.0166 66.239 34.5559 66.239 36.5436C66.239 38.5462 66.7776 40.1005 67.8548 41.2065C68.9469 42.2975 70.256 42.843 71.782 42.843C72.6198 42.843 73.3604 42.7085 74.0037 42.4394C74.662 42.1704 75.1707 41.8192 75.5297 41.3858C75.9038 40.9375 76.1806 40.4891 76.3601 40.0408C76.5546 39.5924 76.6668 39.144 76.6967 38.6957H71.1761V36.7229H78.7838V44.5019ZM84.1618 41.9463C84.8201 42.6188 85.6205 42.955 86.563 42.955C87.5055 42.955 88.2985 42.6188 88.9418 41.9463C89.6001 41.2588 89.9292 40.3098 89.9292 39.0992C89.9292 37.9036 89.6001 36.9695 88.9418 36.297C88.2985 35.6095 87.5055 35.2658 86.563 35.2658C85.6205 35.2658 84.8201 35.6095 84.1618 36.297C83.5185 36.9695 83.1968 37.9036 83.1968 39.0992C83.1968 40.3098 83.5185 41.2588 84.1618 41.9463ZM82.5909 35.0192C83.6382 33.9282 84.9622 33.3827 86.563 33.3827C88.1638 33.3827 89.4804 33.9282 90.5127 35.0192C91.56 36.0952 92.0836 37.4552 92.0836 39.0992C92.0836 40.7581 91.5674 42.1331 90.5351 43.2241C89.5028 44.3001 88.1788 44.8381 86.563 44.8381C84.9472 44.8381 83.6232 44.3001 82.5909 43.2241C81.5586 42.1331 81.0424 40.7581 81.0424 39.0992C81.0424 37.4552 81.5586 36.0952 82.5909 35.0192ZM97.0042 41.9463C97.6625 42.6188 98.4629 42.955 99.4055 42.955C100.348 42.955 101.141 42.6188 101.784 41.9463C102.443 41.2588 102.772 40.3098 102.772 39.0992C102.772 37.9036 102.443 36.9695 101.784 36.297C101.141 35.6095 100.348 35.2658 99.4055 35.2658C98.4629 35.2658 97.6625 35.6095 97.0042 36.297C96.3609 36.9695 96.0393 37.9036 96.0393 39.0992C96.0393 40.3098 96.3609 41.2588 97.0042 41.9463ZM95.4333 35.0192C96.4806 33.9282 97.8047 33.3827 99.4055 33.3827C101.006 33.3827 102.323 33.9282 103.355 35.0192C104.402 36.0952 104.926 37.4552 104.926 39.0992C104.926 40.7581 104.41 42.1331 103.378 43.2241C102.345 44.3001 101.021 44.8381 99.4055 44.8381C97.7897 44.8381 96.4656 44.3001 95.4333 43.2241C94.401 42.1331 93.8849 40.7581 93.8849 39.0992C93.8849 37.4552 94.401 36.0952 95.4333 35.0192ZM106.84 45.0847L108.882 44.614C108.957 45.3762 109.263 46.0038 109.802 46.497C110.34 47.0052 111.014 47.2592 111.822 47.2592C114.021 47.2592 115.12 46.0935 115.12 43.7621V42.2153C114.851 42.7383 114.425 43.1643 113.841 43.4931C113.273 43.8219 112.6 43.9863 111.822 43.9863C110.385 43.9863 109.196 43.5005 108.253 42.5291C107.326 41.5427 106.862 40.2873 106.862 38.7629C106.862 37.2834 107.326 36.0429 108.253 35.0416C109.181 34.0253 110.37 33.5172 111.822 33.5172C113.467 33.5172 114.574 34.0851 115.143 35.221V33.719H117.23V43.6948C117.23 44.4122 117.133 45.0773 116.938 45.69C116.759 46.3177 116.467 46.8931 116.063 47.4162C115.659 47.9392 115.091 48.3502 114.357 48.6491C113.639 48.948 112.794 49.0975 111.822 49.0975C110.49 49.0975 109.36 48.7164 108.433 47.9542C107.505 47.2069 106.974 46.2504 106.84 45.0847ZM112.136 42.2153C113.048 42.2153 113.789 41.9014 114.357 41.2737C114.926 40.6311 115.21 39.7942 115.21 38.7629C115.21 37.7317 114.926 36.9023 114.357 36.2746C113.789 35.6319 113.048 35.3106 112.136 35.3106C111.208 35.3106 110.453 35.6245 109.869 36.2522C109.301 36.8799 109.016 37.7168 109.016 38.7629C109.016 39.824 109.293 40.6684 109.847 41.2961C110.415 41.9089 111.178 42.2153 112.136 42.2153ZM122.708 44.5019H120.598V28.2715H122.708V44.5019ZM127.665 38.0007H133.567C133.538 37.1937 133.268 36.5361 132.76 36.028C132.251 35.5049 131.533 35.2434 130.605 35.2434C129.767 35.2434 129.079 35.5199 128.541 36.0728C128.002 36.6109 127.71 37.2535 127.665 38.0007ZM133.882 40.803L135.699 41.4306C135.385 42.432 134.802 43.2539 133.949 43.8966C133.096 44.5243 132.064 44.8381 130.852 44.8381C129.341 44.8381 128.054 44.3225 126.992 43.2913C125.945 42.2452 125.421 40.8403 125.421 39.0768C125.421 37.4328 125.93 36.0728 126.947 34.9968C127.965 33.9207 129.176 33.3827 130.583 33.3827C132.214 33.3827 133.485 33.8983 134.398 34.9295C135.31 35.9458 135.767 37.3133 135.767 39.032C135.767 39.301 135.752 39.5251 135.722 39.7045H127.598C127.613 40.661 127.927 41.4456 128.541 42.0583C129.169 42.6711 129.939 42.9775 130.852 42.9775C132.393 42.9775 133.403 42.2526 133.882 40.803ZM146.494 36.028H149.68C150.623 36.028 151.371 35.7889 151.925 35.3106C152.478 34.8174 152.755 34.1599 152.755 33.3379C152.755 32.5009 152.478 31.8359 151.925 31.3427C151.371 30.8346 150.623 30.5805 149.68 30.5805H146.494V36.028ZM150.084 38.0007H146.494V44.5019H144.294V28.6077H150.084C151.536 28.6077 152.717 29.0561 153.63 29.9528C154.543 30.8495 154.999 31.9704 154.999 33.3155C154.999 34.6755 154.543 35.7963 153.63 36.6781C152.717 37.5599 151.536 38.0007 150.084 38.0007ZM159.351 44.5019H157.241V28.2715H159.351V44.5019ZM162.266 41.61C162.266 40.6834 162.565 39.9436 163.163 39.3906C163.762 38.8227 164.555 38.4715 165.542 38.337L168.46 37.9111C169.013 37.8364 169.29 37.5673 169.29 37.104C169.29 36.5361 169.095 36.0728 168.706 35.7141C168.317 35.3555 167.734 35.1761 166.956 35.1761C166.238 35.1761 165.669 35.3779 165.25 35.7814C164.832 36.17 164.585 36.693 164.51 37.3506L162.49 36.8799C162.595 35.8487 163.066 35.0117 163.904 34.3691C164.742 33.7115 165.744 33.3827 166.911 33.3827C168.437 33.3827 169.567 33.7563 170.3 34.5036C171.033 35.2359 171.399 36.1774 171.399 37.3282V42.7309C171.399 43.3735 171.444 43.9638 171.534 44.5019H169.469C169.395 44.0535 169.357 43.5678 169.357 43.0447C169.058 43.523 168.617 43.9414 168.033 44.3001C167.465 44.6588 166.747 44.8381 165.879 44.8381C164.817 44.8381 163.949 44.5243 163.276 43.8966C162.602 43.2539 162.266 42.4917 162.266 41.61ZM166.171 43.0671C167.113 43.0671 167.869 42.8131 168.437 42.3049C169.006 41.7968 169.29 40.9898 169.29 39.8838V39.3906L165.991 39.8838C165.512 39.9586 165.131 40.1304 164.847 40.3994C164.562 40.6684 164.42 41.0346 164.42 41.4979C164.42 41.9164 164.577 42.2825 164.891 42.5964C165.221 42.9102 165.647 43.0671 166.171 43.0671ZM177.16 49.0078H174.849L177.542 43.3137L172.897 33.719H175.32L178.686 41.1616L181.918 33.719H184.185L177.16 49.0078Z" fill="white"/>
<path opacity="0.6" d="M70.2346 19.9491V16.7978H67.2082V17.8226H69.1232C69.0548 18.2496 68.6188 19.0012 67.4988 19.0012C66.4815 19.0012 65.5838 18.2923 65.5838 16.9259C65.5838 15.4912 66.5755 14.8678 67.4903 14.8678C68.4734 14.8678 68.9778 15.4912 69.1317 16.0292L70.2602 15.6278C69.961 14.697 69.0804 13.7661 67.4903 13.7661C65.8489 13.7661 64.387 14.9703 64.387 16.9259C64.387 18.8816 65.7805 20.0772 67.4133 20.0772C68.3281 20.0772 68.9265 19.6673 69.2001 19.2574L69.2771 19.9491H70.2346ZM76.8238 19.9491V18.8389H74.2077V17.4383H76.5758V16.3879H74.2077V15.0044H76.8238V13.8942H73.028V19.9491H76.8238ZM84.1696 15.013V13.8942H79.1513V15.013H81.0663V19.9491H82.2546V15.013H84.1696ZM91.5151 19.9491V13.8942H90.3182V19.9491H91.5151ZM98.9636 15.013V13.8942H93.9453V15.013H95.8603V19.9491H97.0486V15.013H98.9636ZM105.976 16.9174C105.976 15.551 106.933 14.9019 107.865 14.9019C108.805 14.9019 109.763 15.551 109.763 16.9174C109.763 18.2838 108.805 18.9328 107.865 18.9328C106.933 18.9328 105.976 18.2838 105.976 16.9174ZM104.753 16.9259C104.753 18.8731 106.223 20.0772 107.865 20.0772C109.515 20.0772 110.985 18.8731 110.985 16.9259C110.985 14.9703 109.515 13.7661 107.865 13.7661C106.223 13.7661 104.753 14.9703 104.753 16.9259ZM118.784 19.9491V13.8942H117.604V17.8995L115.082 13.8942H113.611V19.9491H114.791V15.6535L117.544 19.9491H118.784Z" fill="white"/>
<path d="M29.9199 44.0649C29.2869 44.4735 28.5267 44.5971 27.8135 44.4288L40.3455 31.9102L44.4071 35.9674L29.9199 44.0649Z" fill="#F34234"/>
<path d="M26.2582 43.4114C25.9087 42.9473 25.7075 42.3773 25.7075 41.7744V19.4749C25.7075 18.872 25.9087 18.302 26.2582 17.8379L39.0585 30.6246L26.2582 43.4114Z" fill="#00D6FF"/>
<path d="M49.7081 33.0045L46.0577 35.0447L41.6326 30.6243L46.058 26.2036L49.7087 28.244C50.5833 28.7335 51.1054 29.6233 51.1054 30.6243C51.1054 31.6253 50.5833 32.5149 49.7081 33.0045Z" fill="#FCBA3D"/>
<path d="M40.3456 29.3393L27.8145 16.8214C28.0198 16.773 28.229 16.7471 28.438 16.7471C28.9548 16.7471 29.4697 16.8939 29.9201 17.1845L44.4074 25.2819L40.3456 29.3393Z" fill="#0DB15A"/>
<rect x="221" width="189" height="61" rx="10" fill="#2B2B2B"/>
<path d="M294.425 44.5021L292.698 40.0634H285.654L283.971 44.5021H281.615L287.942 28.608H290.477L296.803 44.5021H294.425ZM289.153 30.8946L286.439 38.0234H291.913L289.153 30.8946ZM300.805 48.7615H298.719V33.7192H300.76V35.4005C301.074 34.8326 301.545 34.3693 302.174 34.0106C302.802 33.652 303.535 33.4726 304.372 33.4726C305.927 33.4726 307.139 34.0032 308.006 35.0643C308.889 36.1254 309.33 37.4704 309.33 39.0995C309.33 40.7434 308.874 42.1034 307.961 43.1795C307.064 44.2555 305.845 44.7935 304.305 44.7935C303.512 44.7935 302.809 44.6291 302.196 44.3004C301.583 43.9716 301.119 43.5531 300.805 43.045V48.7615ZM307.176 39.0995C307.176 38.0085 306.885 37.1118 306.301 36.4093C305.733 35.692 304.963 35.3333 303.991 35.3333C303.033 35.3333 302.256 35.692 301.658 36.4093C301.074 37.1118 300.783 38.0085 300.783 39.0995C300.783 40.2203 301.074 41.1395 301.658 41.8568C302.256 42.5592 303.033 42.9105 303.991 42.9105C304.948 42.9105 305.718 42.5592 306.301 41.8568C306.885 41.1395 307.176 40.2203 307.176 39.0995ZM314.103 48.7615H312.017V33.7192H314.058V35.4005C314.373 34.8326 314.844 34.3693 315.472 34.0106C316.1 33.652 316.833 33.4726 317.67 33.4726C319.226 33.4726 320.437 34.0032 321.305 35.0643C322.187 36.1254 322.628 37.4704 322.628 39.0995C322.628 40.7434 322.172 42.1034 321.26 43.1795C320.362 44.2555 319.144 44.7935 317.603 44.7935C316.81 44.7935 316.107 44.6291 315.494 44.3004C314.881 43.9716 314.417 43.5531 314.103 43.045V48.7615ZM320.475 39.0995C320.475 38.0085 320.183 37.1118 319.6 36.4093C319.031 35.692 318.261 35.3333 317.289 35.3333C316.332 35.3333 315.554 35.692 314.956 36.4093C314.373 37.1118 314.081 38.0085 314.081 39.0995C314.081 40.2203 314.373 41.1395 314.956 41.8568C315.554 42.5592 316.332 42.9105 317.289 42.9105C318.246 42.9105 319.016 42.5592 319.6 41.8568C320.183 41.1395 320.475 40.2203 320.475 39.0995ZM341.289 32.2172L339.315 32.9122C339.21 32.2247 338.873 31.6045 338.305 31.0515C337.737 30.4836 336.951 30.1996 335.949 30.1996C335.067 30.1996 334.334 30.4537 333.751 30.9618C333.167 31.47 332.875 32.0977 332.875 32.8449C332.875 33.4278 333.047 33.921 333.391 34.3245C333.751 34.728 334.259 35.0045 334.917 35.1539L337.295 35.6696C338.612 35.9535 339.629 36.4915 340.346 37.2836C341.064 38.0608 341.423 39.0098 341.423 40.1307C341.423 41.4159 340.915 42.5219 339.898 43.4485C338.881 44.3751 337.557 44.8384 335.927 44.8384C334.147 44.8384 332.748 44.3751 331.731 43.4485C330.729 42.5069 330.146 41.3935 329.981 40.1082L332.09 39.4357C332.18 40.3922 332.554 41.1992 333.212 41.8568C333.871 42.5144 334.768 42.8432 335.905 42.8432C336.951 42.8432 337.759 42.6041 338.327 42.1258C338.896 41.6476 339.18 41.0423 339.18 40.31C339.18 39.7122 338.978 39.1966 338.574 38.7632C338.17 38.3148 337.58 38.0085 336.802 37.8441L334.536 37.3509C333.354 37.0968 332.412 36.5961 331.709 35.8489C331.006 35.1016 330.654 34.1526 330.654 33.0019C330.654 31.7465 331.163 30.648 332.18 29.7065C333.212 28.75 334.454 28.2717 335.905 28.2717C337.535 28.2717 338.784 28.6678 339.651 29.4599C340.518 30.252 341.064 31.1711 341.289 32.2172ZM346.83 30.3117V33.7192H349.163V35.6247H346.83V41.2291C346.83 41.7373 346.942 42.1109 347.166 42.35C347.406 42.5891 347.795 42.7087 348.333 42.7087C348.647 42.7087 348.924 42.6788 349.163 42.619V44.4124C348.804 44.5469 348.325 44.6142 347.727 44.6142C346.8 44.6142 346.067 44.3452 345.529 43.8072C344.99 43.2691 344.721 42.5144 344.721 41.543V35.6247H342.657V33.7192H343.24C343.794 33.7192 344.205 33.5698 344.474 33.2709C344.758 32.957 344.901 32.5535 344.901 32.0603V30.3117H346.83ZM354.089 41.9465C354.747 42.619 355.547 42.9553 356.489 42.9553C357.432 42.9553 358.224 42.619 358.867 41.9465C359.525 41.259 359.854 40.31 359.854 39.0995C359.854 37.9038 359.525 36.9698 358.867 36.2972C358.224 35.6098 357.432 35.266 356.489 35.266C355.547 35.266 354.747 35.6098 354.089 36.2972C353.446 36.9698 353.124 37.9038 353.124 39.0995C353.124 40.31 353.446 41.259 354.089 41.9465ZM352.518 35.0194C353.565 33.9285 354.889 33.383 356.489 33.383C358.09 33.383 359.406 33.9285 360.438 35.0194C361.485 36.0955 362.008 37.4555 362.008 39.0995C362.008 40.7584 361.492 42.1333 360.46 43.2243C359.428 44.3004 358.105 44.8384 356.489 44.8384C354.874 44.8384 353.55 44.3004 352.518 43.2243C351.487 42.1333 350.971 40.7584 350.971 39.0995C350.971 37.4555 351.487 36.0955 352.518 35.0194ZM370.696 33.6071V35.8489C370.382 35.8041 370.076 35.7816 369.777 35.7816C367.802 35.7816 366.815 36.8876 366.815 39.0995V44.5021H364.707V33.7192H366.77V35.6023C367.429 34.2274 368.505 33.5399 370.001 33.5399C370.24 33.5399 370.472 33.5623 370.696 33.6071ZM374.203 38.001H380.103C380.073 37.194 379.804 36.5364 379.295 36.0282C378.787 35.5052 378.069 35.2436 377.141 35.2436C376.304 35.2436 375.616 35.5201 375.077 36.0731C374.539 36.6111 374.247 37.2537 374.203 38.001ZM380.417 40.8032L382.234 41.4309C381.92 42.4322 381.337 43.2542 380.484 43.8968C379.632 44.5245 378.6 44.8384 377.388 44.8384C375.878 44.8384 374.591 44.3228 373.529 43.2916C372.483 42.2454 371.959 40.8406 371.959 39.077C371.959 37.4331 372.468 36.0731 373.485 34.997C374.502 33.921 375.713 33.383 377.119 33.383C378.749 33.383 380.02 33.8986 380.933 34.9298C381.845 35.946 382.301 37.3135 382.301 39.0322C382.301 39.3012 382.286 39.5254 382.256 39.7047H374.135C374.15 40.6612 374.464 41.4458 375.077 42.0586C375.706 42.6713 376.476 42.9777 377.388 42.9777C378.929 42.9777 379.938 42.2529 380.417 40.8032Z" fill="white"/>
<path opacity="0.6" d="M283.263 18.856V14.9873H284.211C285.203 14.9873 286.023 15.6108 286.023 16.9259C286.023 18.2411 285.194 18.856 284.203 18.856H283.263ZM284.245 19.9491C285.972 19.9491 287.245 18.8389 287.245 16.9259C287.245 15.013 285.98 13.8942 284.254 13.8942H282.083V19.9491H284.245ZM290.199 16.9174C290.199 15.551 291.156 14.9019 292.088 14.9019C293.028 14.9019 293.985 15.551 293.985 16.9174C293.985 18.2838 293.028 18.9328 292.088 18.9328C291.156 18.9328 290.199 18.2838 290.199 16.9174ZM288.977 16.9259C288.977 18.8731 290.447 20.0772 292.088 20.0772C293.737 20.0772 295.207 18.8731 295.207 16.9259C295.207 14.9703 293.737 13.7661 292.088 13.7661C290.447 13.7661 288.977 14.9703 288.977 16.9259ZM302.781 18.0788L301.431 13.8942H300.208L298.867 18.0618L297.756 13.8942H296.508L298.192 19.9491H299.422L300.807 15.6364L302.191 19.9491H303.405L305.08 13.8942H303.875L302.781 18.0788ZM312.116 19.9491V13.8942H310.937V17.8995L308.416 13.8942H306.946V19.9491H308.125V15.6535L310.877 19.9491H312.116ZM318.446 19.9491V18.8218H315.745V13.8942H314.566V19.9491H318.446ZM321.079 16.9174C321.079 15.551 322.036 14.9019 322.968 14.9019C323.908 14.9019 324.865 15.551 324.865 16.9174C324.865 18.2838 323.908 18.9328 322.968 18.9328C322.036 18.9328 321.079 18.2838 321.079 16.9174ZM319.857 16.9259C319.857 18.8731 321.327 20.0772 322.968 20.0772C324.617 20.0772 326.087 18.8731 326.087 16.9259C326.087 14.9703 324.617 13.7661 322.968 13.7661C321.327 13.7661 319.857 14.9703 319.857 16.9259ZM331.997 19.9491H333.279L330.971 13.8942H329.604L327.279 19.9491H328.527L329.031 18.5656H331.492L331.997 19.9491ZM330.262 15.2008L331.099 17.4896H329.424L330.262 15.2008ZM336.301 18.856V14.9873H337.249C338.241 14.9873 339.061 15.6108 339.061 16.9259C339.061 18.2411 338.232 18.856 337.241 18.856H336.301ZM337.284 19.9491C339.01 19.9491 340.283 18.8389 340.283 16.9259C340.283 15.013 339.018 13.8942 337.292 13.8942H335.121V19.9491H337.284ZM346.417 16.9174C346.417 15.551 347.375 14.9019 348.306 14.9019C349.246 14.9019 350.203 15.551 350.203 16.9174C350.203 18.2838 349.246 18.9328 348.306 18.9328C347.375 18.9328 346.417 18.2838 346.417 16.9174ZM345.195 16.9259C345.195 18.8731 346.665 20.0772 348.306 20.0772C349.956 20.0772 351.426 18.8731 351.426 16.9259C351.426 14.9703 349.956 13.7661 348.306 13.7661C346.665 13.7661 345.195 14.9703 345.195 16.9259ZM358.687 19.9491V13.8942H357.507V17.8995L354.986 13.8942H353.516V19.9491H354.696V15.6535L357.447 19.9491H358.687ZM368.778 15.013V13.8942H363.761V15.013H365.675V19.9491H366.863V15.013H368.778ZM375.684 19.9491V13.8942H374.496V16.3281H371.855V13.8942H370.676V19.9491H371.855V17.4383H374.496V19.9491H375.684ZM381.931 19.9491V18.8389H379.316V17.4383H381.684V16.3879H379.316V15.0044H381.931V13.8942H378.137V19.9491H381.931Z" fill="white"/>
<path d="M267.369 38.1152C266.675 39.6504 266.344 40.3356 265.45 41.692C264.206 43.5862 262.45 45.9454 260.274 45.9653C258.341 45.9834 257.844 44.7084 255.22 44.7237C252.596 44.7391 252.049 45.9881 250.116 45.97C247.94 45.9507 246.278 43.8203 245.032 41.9248C241.549 36.6273 241.186 30.4111 243.333 27.1066C244.86 24.7566 247.269 23.3836 249.533 23.3836C251.838 23.3836 253.288 24.6466 255.195 24.6466C257.044 24.6466 258.171 23.3816 260.837 23.3816C262.852 23.3816 264.987 24.4778 266.509 26.3719C261.523 29.1014 262.334 36.213 267.369 38.1152Z" fill="white"/>
<path d="M259.095 20.0663C260.064 18.824 260.798 17.0713 260.531 15.2786C258.949 15.3867 257.1 16.3928 256.019 17.7038C255.039 18.8935 254.229 20.6582 254.544 22.3734C256.27 22.4276 258.057 21.3967 259.095 20.0663Z" fill="white"/>
</svg>
