<svg width="45" height="43" viewBox="0 0 45 43" fill="none" xmlns="http://www.w3.org/2000/svg">
<path d="M9.38106 8.56108C10.7399 8.56108 11.8415 7.45951 11.8415 6.10067C11.8415 4.74182 10.7399 3.64026 9.38106 3.64026C8.02222 3.64026 6.92065 4.74182 6.92065 6.10067C6.92065 7.45951 8.02222 8.56108 9.38106 8.56108Z" stroke="#160647" stroke-width="3" stroke-miterlimit="10"/>
<path d="M4.46045 16.7624C4.46045 16.7624 5.28059 13.2266 6.92086 12.4065C8.56113 11.5863 10.2014 11.5863 11.8417 12.4065C13.4819 13.2266 14.3021 16.7624 14.3021 16.7624" stroke="#160647" stroke-width="3" stroke-miterlimit="10" stroke-linecap="round" stroke-linejoin="round"/>
<path d="M38.0793 16.2078C39.4382 16.2078 40.5397 15.1062 40.5397 13.7474C40.5397 12.3885 39.4382 11.287 38.0793 11.287C36.7205 11.287 35.6189 12.3885 35.6189 13.7474C35.6189 15.1062 36.7205 16.2078 38.0793 16.2078Z" stroke="#160647" stroke-width="3" stroke-miterlimit="10"/>
<path d="M33.1584 24.4091C33.1584 24.4091 33.9786 20.8733 35.6189 20.0532C37.2591 19.2331 38.8994 19.2331 40.5397 20.0532C42.1799 20.8733 43.0001 24.4091 43.0001 24.4091" stroke="#160647" stroke-width="3" stroke-miterlimit="10" stroke-linecap="round" stroke-linejoin="round"/>
<path d="M16.7564 33.1715C18.1153 33.1715 19.2168 32.07 19.2168 30.7111C19.2168 29.3523 18.1153 28.2507 16.7564 28.2507C15.3976 28.2507 14.296 29.3523 14.296 30.7111C14.296 32.07 15.3976 33.1715 16.7564 33.1715Z" stroke="#160647" stroke-width="3" stroke-miterlimit="10"/>
<path d="M11.8358 41.3729C11.8358 41.3729 12.656 37.8371 14.2962 37.017C15.9365 36.1968 17.5768 36.1968 19.217 37.017C20.8573 37.8371 21.6774 41.3729 21.6774 41.3729" stroke="#160647" stroke-width="3" stroke-miterlimit="10" stroke-linecap="round" stroke-linejoin="round"/>
<path d="M35.2579 8.6723C31.7978 4.59065 26.6329 2 20.8629 2C18.5917 2 16.4142 2.40137 14.3976 3.13712" stroke="#160647" stroke-width="3" stroke-miterlimit="10" stroke-linecap="round" stroke-linejoin="round"/>
<path d="M24.4989 39.3762C31.2344 38.061 36.6873 33.1617 38.7912 26.7448" stroke="#160647" stroke-width="3" stroke-miterlimit="10" stroke-linecap="round" stroke-linejoin="round"/>
<path d="M2.07119 19.2134C2.02403 19.757 2 20.3073 2 20.8632C2 27.4032 5.32828 33.1659 10.3835 36.5497" stroke="#160647" stroke-width="3" stroke-miterlimit="10" stroke-linecap="round" stroke-linejoin="round"/>
</svg>
