<svg width="90" height="56" viewBox="0 0 90 56" fill="none" xmlns="http://www.w3.org/2000/svg">
<path d="M16.4788 25.4053C19.6504 25.0729 22.7381 24.3898 25.7845 24.4867C29.1135 24.5729 32.5946 24.9363 35.6785 26.0225C39.333 27.2285 40.948 30.6346 40.2286 34.0584C39.4465 37.6969 36.5591 39.9291 32.4501 39.8017C27.1372 39.6492 22.524 37.418 18.3079 34.4642C17.2186 33.7271 16.3385 32.9113 15.3905 32.1689C7.54617 34.3058 6.44399 36.9657 5.43337 55.1189C2.47635 55.5139 1.62147 53.4943 1.11187 51.2492C-0.726377 43.8181 3.12778 33.4825 9.32659 29.002C10.0171 28.5513 10.5663 28.1059 11.3982 27.6498C11.1461 26.598 10.758 25.6928 10.5112 24.7822C8.8464 18.1937 11.0867 11.9526 17.0456 8.61335C20.4411 6.7157 24.3552 5.43527 28.2854 4.57878C34.9526 3.12328 41.7627 3.57292 48.3903 4.80785C56.4418 6.2719 64.368 8.16524 72.4249 9.77061C73.5661 10.0104 74.8487 10.2449 76.414 10.4686C75.255 7.89436 74.0442 5.81738 73.3932 3.57768C73.0785 2.74046 73.6421 0.808575 74.1341 0.719178C75.1859 0.467048 76.4113 1.05746 77.5525 1.29728C77.7672 1.35991 77.9246 1.77853 78.1446 1.98248C81.2676 5.96834 84.4638 10.0222 87.7281 14.0027C90.6204 17.502 90.5952 18.7059 87.1639 21.5248C83.1834 24.7891 78.5054 26.4522 73.5806 27.2049C71.9635 27.4784 70.3356 27.4693 69.8153 24.9416C72.7225 21.3642 77.8315 21.7368 81.8173 18.6138C80.168 18.0394 79.0161 17.517 77.8748 17.2771C67.8807 14.9668 57.9492 12.4418 47.8352 10.7021C42.3489 9.70695 36.6174 9.71178 31.1059 9.92056C27.7142 10.049 24.0774 11.1775 20.9485 12.6404C15.5907 15.037 14.2021 19.4768 16.4788 25.4053ZM22.3655 29.4987C22.2402 29.928 22.2563 30.352 22.131 30.7813C24.6138 32.8101 27.4204 34.0483 30.5562 34.6371C33.4773 35.1633 35.1517 34.5338 35.3022 32.9006C35.3525 30.4928 33.4259 30.0704 31.7194 29.852C28.5263 29.6192 25.4852 29.6636 22.3655 29.4987Z" fill="#160647"/>
</svg>
